<svg width="124" height="125" viewBox="0 0 124 125" fill="none" xmlns="http://www.w3.org/2000/svg">
<path d="M2.70757 28.4438V8.91513C2.70757 7.09458 3.00829 5.37172 4.24661 3.94193C5.62645 2.3434 7.52814 1.72175 9.57136 1.72175H30.0213C30.8085 1.72175 30.8085 0.496216 30.0213 0.496216H9.80134C8.0677 0.496216 6.41365 0.753756 4.92767 1.73063C2.76062 3.16043 1.53116 5.55822 1.48694 8.14251C1.43387 11.3573 1.48694 14.5721 1.48694 17.787V28.4438C1.48694 29.2342 2.70757 29.2342 2.70757 28.4438Z" fill="#FF725E"/>
<path d="M28.2346 123.032H8.78416C6.97091 123.032 5.25496 122.73 3.83089 121.487C2.23877 120.102 1.61961 118.192 1.61961 116.132V95.5997C1.61961 94.8094 0.398985 94.8094 0.398985 95.5997V115.901C0.398985 117.642 0.655506 119.302 1.62847 120.794C3.05253 122.97 5.44071 124.205 8.01464 124.249C11.2166 124.302 14.4185 124.249 17.6204 124.249H28.2346C29.0218 124.249 29.0218 123.023 28.2346 123.023V123.032Z" fill="#FF725E"/>
<path d="M121.851 95.4044V114.933C121.851 116.754 121.55 118.477 120.312 119.906C118.932 121.505 117.031 122.126 114.979 122.126H94.5287C93.7415 122.126 93.7415 123.352 94.5287 123.352H114.749C116.482 123.352 118.136 123.094 119.622 122.118C121.789 120.688 123.019 118.29 123.063 115.706C123.116 112.491 123.063 109.276 123.063 106.061V95.4044C123.063 94.614 121.842 94.614 121.842 95.4044H121.851Z" fill="#FF725E"/>
<path d="M94.8825 1.72178H114.333C116.146 1.72178 117.862 2.02372 119.286 3.26702C120.878 4.65241 121.497 6.56177 121.497 8.6221V29.1543C121.497 29.9447 122.718 29.9447 122.718 29.1543V8.85299C122.718 7.11237 122.462 5.45168 121.489 3.95972C120.064 1.78395 117.676 0.549531 115.102 0.505127C111.9 0.451843 108.699 0.505127 105.497 0.505127H94.8825C94.0953 0.505127 94.0953 1.73066 94.8825 1.73066V1.72178Z" fill="#FF725E"/>
<path d="M37.1593 85.8843H29.8001C29.7382 84.5611 29.6852 83.5132 29.6232 82.2255C30.8881 82.1012 31.9583 82.0035 33.1524 81.8791V78.2913H18.5403C18.4519 77.0036 18.3811 75.9646 18.2927 74.517H25.6341V70.8404H10.9954C10.9335 71.9239 10.8716 72.9629 10.792 74.2417C12.0568 74.3838 13.1182 74.5081 14.3477 74.6502V77.9006C13.3217 78.096 12.163 78.3091 10.7831 78.5755V85.5735H7.20973V67.2526C8.25346 67.0572 9.39448 66.8441 10.6416 66.6132V63.3806C9.536 63.2208 8.47456 63.0698 7.21856 62.8922V55.5212C9.83671 57.244 11.8357 58.5584 14.4273 60.2635C14.4716 60.6276 14.5954 61.7022 14.7369 62.9987C15.8956 63.0876 16.9571 63.1675 18.16 63.2652C18.275 64.5529 18.3634 65.6097 18.4695 66.773H33.179C33.2586 65.4853 33.3382 64.2776 33.4178 63.0787L33.3116 63.1852H36.8674C37.0885 64.6417 37.2477 65.7074 37.4069 66.7642H40.5912C40.8388 65.4942 41.06 64.3397 41.2899 63.1142C42.4664 63.1675 43.4216 63.2119 44.7219 63.2652V70.4319C46.1459 70.645 47.1896 70.8049 48.4722 71.0003C48.4722 73.5757 48.4722 75.9379 48.4722 78.3002C47.2781 78.3002 46.084 78.3002 44.6511 78.3002V89.259C43.2801 89.5166 42.1214 89.7297 41.0688 89.9251V93.2287C42.2806 93.3353 43.342 93.4241 44.4653 93.5217C44.6069 94.8183 44.7307 95.884 44.8545 97.0119H52.0279C52.1252 95.8396 52.2137 94.7828 52.3198 93.504C53.5404 93.4063 54.6018 93.3264 55.7252 93.2376V89.8185C54.4603 89.632 53.3901 89.4722 52.2844 89.3123C52.2225 87.9891 52.1694 86.8701 52.1252 85.7511C54.3365 85.7511 56.5478 85.7511 58.6706 85.7511C58.9183 87.3141 59.0863 88.3798 59.2898 89.6498C60.5369 89.5165 61.5718 89.41 62.5359 89.3034V82.2166C61.3064 82.0745 60.245 81.9413 59.1924 81.817C59.0155 80.5293 58.8652 79.4725 58.6971 78.2913H52.1252C52.2048 77.0836 52.2844 75.8847 52.3817 74.3217H62.4032C63.6504 70.6894 61.4126 70.5029 60.1389 70.5207C58.8563 68.8067 58.0072 67.67 57.1581 66.5422C56.8485 66.7375 56.5389 66.9329 56.2293 67.1372C56.0082 68.3005 55.7871 69.4728 55.5483 70.7072C54.3719 70.6539 53.4166 70.6095 52.4171 70.5651V63.1497C55.3006 63.4517 56.8043 62.679 55.5659 59.4909C54.5488 59.3843 53.4785 59.2689 52.4083 59.1445C52.2225 58.7626 52.0279 58.3808 51.8422 57.99C53.1159 57.1641 54.3984 56.3471 55.0618 55.9208C56.8397 53.3721 58.2725 51.3117 60.015 48.8162H70.3019L70.1958 48.7097V56.3649C68.7363 56.2494 67.6838 56.1606 66.7373 56.0896C66.5074 54.7308 66.3304 53.674 66.1801 52.7326H62.9516V59.109C64.2253 59.3044 65.2956 59.4642 66.4012 59.633C66.4631 60.9384 66.5074 62.0574 66.5604 63.1764C65.3664 63.1764 64.1634 63.1764 62.7305 63.1764C62.8278 64.6417 62.8897 65.6985 62.9693 66.853H66.5693V77.9095C67.9668 78.1937 69.099 78.4157 70.1338 78.6199C70.2665 79.9964 70.3815 81.0976 70.4788 82.1988C69.1963 82.1988 67.9137 82.1988 66.4189 82.1988C66.5604 83.6286 66.6666 84.6677 66.7727 85.76H70.3373C70.3373 87.0477 70.3373 88.3354 70.3373 89.6231C69.1432 89.6231 67.9491 89.6231 66.5162 89.6231C66.5958 91.0707 66.6577 92.1186 66.7196 93.3885C68.0376 93.2909 69.0813 93.2109 70.2223 93.1221V89.5166C71.4252 89.6054 72.6282 89.6942 73.7869 89.783C73.9815 91.0973 74.1407 92.1541 74.2734 93.06H81.3671V82.2432H78.006C77.8379 83.5043 77.6964 84.5611 77.5195 85.8666C74.9279 85.8666 72.5751 85.8666 70.2135 85.8666C70.2577 84.6144 70.3107 83.3622 70.355 82.1012C71.4518 82.0301 72.5574 81.9591 73.7338 81.888C73.9638 80.6358 74.1672 79.4813 74.4149 78.1137H81.3141V74.3661H74.123C74.0611 72.883 74.008 71.7551 73.9549 70.6362C76.4493 70.6362 78.9347 70.6362 81.491 70.6362V66.8441H92.6977V59.6862C91.3975 58.8515 87.8683 60.3257 89.5135 56.2849H100.119V52.4396H89.1155V48.7097L89.0093 48.8162C90.1238 48.763 91.2471 48.7186 92.7154 48.6475V41.392C94.0953 41.2588 95.1478 41.1522 96.4127 41.0279C96.5188 39.8645 96.6161 38.7988 96.7311 37.5822H103.807C103.966 38.5768 104.126 39.6336 104.329 40.9124C105.32 41.0634 106.381 41.2321 107.814 41.4541V48.7985L107.92 48.6919C106.717 48.7718 105.514 48.8518 104.099 48.9495C104.188 50.2638 104.249 51.3117 104.329 52.5728H107.911L107.805 52.4662V55.2725C106.231 56.356 104.992 57.2085 103.754 58.0611C103.966 58.4607 104.17 58.8515 104.382 59.2511H115.094C115.217 60.521 115.315 61.569 115.456 63.0165H108.035C107.92 64.4463 107.832 65.512 107.743 66.5244C105.455 66.7731 104.152 65.6541 103.834 63.1675C102.693 63.1675 101.49 63.1675 100.287 63.1675C100.287 61.9686 100.287 60.7697 100.287 59.331C98.8451 59.4109 97.8014 59.4731 96.5365 59.5353C96.6338 60.8585 96.7134 61.9153 96.8019 63.052H100.393C100.34 64.171 100.287 65.29 100.216 66.6132C99.1016 66.7731 98.0313 66.924 96.7753 67.1016V70.5651H103.798C103.922 71.8528 104.019 72.9007 104.17 74.4993C100.198 74.4993 96.4746 74.4993 92.7597 74.4993C92.7597 73.3004 92.7597 72.0926 92.7597 70.9381H85.4536V81.7814H89.1243V74.3927H92.8658V78.1226H100.136C100.269 79.5169 100.366 80.5826 100.481 81.8081H107.531C107.69 80.849 107.867 79.7922 108.097 78.4512C109.052 78.3713 110.105 78.2913 111.556 78.167V85.8222L111.662 85.7156C110.565 85.76 109.468 85.8133 107.787 85.8843V97.1628L107.894 97.0563C106.611 97.1007 105.329 97.1362 104.046 97.1806C104.046 95.9817 104.046 94.7828 104.046 93.3441C102.604 93.4241 101.561 93.4862 100.296 93.5484C100.393 94.8716 100.473 95.9284 100.561 97.0652H104.152C104.099 98.1841 104.046 99.3031 103.975 100.768H96.6692V108.388H92.742L92.8481 108.504V100.875C91.3179 100.973 90.2742 101.035 89.2747 101.097C89.0712 102.42 88.9032 103.468 88.7086 104.72H81.4468V97.3671H70.1604V104.72L70.2665 104.605H62.8101V93.5573H59.0598V100.582H41.1484C41.0157 99.7116 40.8477 98.6637 40.6531 97.3849C39.6536 97.2339 38.5922 97.0652 37.0443 96.8254C37.0443 93.1754 37.0443 89.4544 37.0443 85.7245C38.2384 85.7245 39.4325 85.7245 40.8654 85.7245C40.7858 84.268 40.7238 83.2201 40.6619 81.9591C39.344 82.0568 38.3003 82.1367 37.1593 82.2255V85.8311V85.8843ZM85.4801 85.9909V96.932H96.3065V85.9909H85.4801ZM33.3559 74.3217C33.2674 72.9629 33.1967 71.9061 33.1259 70.8582H29.7736V74.3217H33.3559ZM96.7311 48.5854H100.11V44.9975C98.8274 45.0863 97.7748 45.1574 96.7311 45.2196V48.5854ZM40.7239 73.8421C39.1229 74.5881 37.9376 74.8545 37.2389 75.5916C36.8408 76.009 37.2477 77.1901 37.3096 78.2558C38.6187 78.1759 39.6713 78.1048 40.7239 78.0338V73.8332V73.8421ZM100.49 89.41H103.869V85.8222C102.587 85.911 101.534 85.982 100.49 86.0442V89.41Z" fill="black"/>
<path d="M32.8782 7.39661V33.0707H7.24509V7.39661H32.8782ZM11.0308 11.1798V29.5273H29.2694V11.1798H11.0308Z" fill="black"/>
<path d="M115.129 33.1773H89.54V7.43213H115.129V33.1773ZM111.485 11.2952H93.2107V29.4918H111.485V11.2952Z" fill="black"/>
<path d="M32.7721 115.661H7.30701V90.1559H32.7721V115.661ZM10.9689 93.5572V111.976H29.2341V93.5572H10.9689Z" fill="black"/>
<path d="M40.9361 29.927C40.9361 28.6304 40.9361 27.3427 40.9361 26.0461L40.83 26.1527C42.0241 26.0816 43.227 26.0017 44.4123 25.9306V18.4886H40.83L40.9361 18.5952V14.8653H48.1714V11.1176H41.2015C41.0511 9.84768 40.9361 8.80864 40.7769 7.46765H51.9218C52.0544 8.42677 52.2048 9.47469 52.3906 10.789C53.5758 10.869 54.7699 10.9578 55.9728 11.0377L55.8667 10.9222V14.5012C54.4161 14.7143 53.3724 14.8653 52.2048 15.034V22.3784H48.2864V33.6125H44.5715L44.6776 33.719C44.6157 32.5468 44.5538 31.3745 44.4919 30.0247C43.1474 29.9536 41.9799 29.8915 40.8123 29.8382L40.9184 29.9447L40.9361 29.927Z" fill="black"/>
<path d="M66.4189 14.8119C67.5422 14.7587 68.6656 14.7143 70.1516 14.6432V7.41431H73.9019V14.4745H81.3406C81.4202 13.3377 81.5087 12.13 81.5971 10.9311L81.491 11.0376H85.0733V26.0372H81.4821L81.5883 26.1437V18.5862C76.1662 18.5862 71.3014 18.5862 66.4277 18.5862C66.4631 17.2897 66.4985 15.9931 66.5339 14.6965L66.4277 14.8031L66.4189 14.8119Z" fill="black"/>
<path d="M92.7597 108.45V115.812H77.8114V112.233L77.7053 112.34C78.8728 112.278 80.0404 112.216 81.4733 112.145V108.45C85.2678 108.486 89.0712 108.521 92.8658 108.557L92.7597 108.441V108.45Z" fill="black"/>
<path d="M77.8114 112.233H70.5054C70.3196 113.53 70.1692 114.596 69.9923 115.857H62.8809V108.654H70.0454C70.1338 107.074 70.2046 105.866 70.2754 104.667L70.1692 104.774H73.725C73.9372 106.23 74.0965 107.296 74.2734 108.441C75.5824 108.441 76.6881 108.441 77.8026 108.441C77.7672 109.738 77.7318 111.034 77.6964 112.331L77.8026 112.224L77.8114 112.233Z" fill="black"/>
<path d="M81.4644 29.927H85.2236V41.2677L85.3297 41.1611H81.7563C81.5617 39.7313 81.4202 38.6745 81.2522 37.4134C79.9961 37.5023 78.9524 37.5822 77.9706 37.6532C77.7583 38.9853 77.5991 40.0421 77.4399 41.0634H73.9373C73.9373 37.227 73.9373 33.5237 73.9373 29.8204C75.2286 29.856 76.52 29.8915 77.8114 29.927L77.7053 29.8204C77.7849 31.0282 77.8645 32.236 77.9618 33.6569C79.2708 33.5681 80.3146 33.5059 81.5706 33.426V29.8204L81.4644 29.927Z" fill="black"/>
<path d="M44.598 112.349C45.7125 112.296 46.8358 112.242 48.3041 112.18V104.96H55.8136C55.8578 105.972 55.9021 106.932 55.9551 108.104C54.7345 108.344 53.5846 108.566 52.2225 108.832V115.812H44.713V112.242L44.6069 112.349H44.598Z" fill="black"/>
<path d="M107.796 97.2072C109.088 97.2072 110.379 97.2161 111.671 97.225L111.564 97.1184V112.224H107.814L107.92 112.331C107.858 111.159 107.796 109.987 107.734 108.637C106.381 108.566 105.222 108.503 104.055 108.45L104.161 108.557V105.022C105.311 104.845 106.381 104.685 107.902 104.454C107.902 102.056 107.902 99.5783 107.902 97.1095L107.796 97.2161V97.2072Z" fill="black"/>
<path d="M40.9362 41.2676C40.9362 38.7099 40.9362 36.1612 40.9362 33.6035L40.83 33.7101H44.6953L44.5892 33.6035C44.6688 34.8113 44.7484 36.0102 44.828 37.2002C46.1371 37.3867 47.1896 37.5377 48.4633 37.7242C48.4633 40.3173 48.4633 42.6885 48.4633 45.0508C47.1719 45.0508 45.8805 45.0508 44.5892 45.0508C44.5892 43.8785 44.5892 42.7151 44.5892 41.3564C43.1563 41.2853 41.9887 41.2232 40.8212 41.161L40.9273 41.2676H40.9362Z" fill="black"/>
<path d="M107.814 112.224V115.821H96.8284C96.7399 114.88 96.6427 113.85 96.5277 112.597C97.7748 112.402 98.8274 112.242 100.11 112.047C100.243 111.043 100.384 109.987 100.579 108.557C101.782 108.557 102.967 108.557 104.161 108.557L104.055 108.45C104.117 109.622 104.179 110.795 104.241 112.145C105.585 112.216 106.753 112.278 107.92 112.331L107.814 112.224Z" fill="black"/>
<path d="M44.713 112.242H41.1926C40.998 113.494 40.8388 114.56 40.6354 115.883C39.6182 115.928 38.5657 115.972 37.3096 116.034V108.859C38.2295 108.69 39.2644 108.503 40.5735 108.273C40.7239 107.358 40.8919 106.301 41.1042 104.96C42.086 104.889 43.1474 104.818 44.598 104.711C44.598 107.42 44.598 109.889 44.598 112.358L44.7041 112.251L44.713 112.242Z" fill="black"/>
<path d="M55.9817 11.0288V7.42322H66.4189C66.4189 9.89206 66.4189 12.352 66.4189 14.812L66.5251 14.7054C65.2337 14.7409 63.9423 14.7764 62.6509 14.812V10.9311H55.8844L55.9905 11.0465L55.9817 11.0288Z" fill="black"/>
<path d="M29.5083 59.3931H18.9118C17.1074 55.6544 20.1148 56.5602 21.8838 56.1517C21.9634 54.8995 22.043 53.7006 22.1226 52.5017L22.0165 52.6083H25.5987C25.7933 54.0381 25.9348 55.0949 26.0852 56.2494H29.5613C29.8267 56.7822 30.0832 57.315 30.3486 57.8479C30.0744 58.363 29.7913 58.8781 29.5171 59.3931H29.5083Z" fill="black"/>
<path d="M25.8818 41.2676V37.662H37.062V41.2676L37.1681 41.161C33.3736 41.161 29.5702 41.161 25.7756 41.161L25.8818 41.2676Z" fill="black"/>
<path d="M14.7369 85.6001V82.2166H25.5722C25.6606 83.2645 25.7491 84.3035 25.8641 85.6001H14.7458H14.7369Z" fill="black"/>
<path d="M14.3212 44.811C14.4008 45.93 14.4893 47.049 14.5866 48.3988C13.4013 48.6031 12.3487 48.7807 11.0485 49.0116C10.8981 49.9707 10.7301 51.0364 10.5178 52.3685C9.50945 52.4129 8.44804 52.4573 7.20088 52.5195V44.9176C9.56252 44.9176 12.0038 44.9176 14.445 44.9176L14.3212 44.811Z" fill="black"/>
<path d="M107.805 48.8251H115.111V56.1073C114.174 56.1783 113.148 56.2493 111.883 56.347C111.715 55.086 111.573 54.0292 111.396 52.7326C110.193 52.6527 108.999 52.5816 107.796 52.5017L107.902 52.6083C107.902 51.3117 107.902 50.0151 107.902 48.7185L107.796 48.8251H107.805Z" fill="black"/>
<path d="M14.7192 41.0011H7.20973V37.5909H14.3124C14.4185 38.7543 14.5158 39.9355 14.6131 41.1166L14.7192 40.9923V41.0011Z" fill="black"/>
<path d="M40.9361 26.0461H37.345V18.5863C38.5479 18.5863 39.7421 18.5863 40.9361 18.5863L40.83 18.4797C40.83 21.0374 40.83 23.595 40.83 26.1438L40.9361 26.0372V26.0461Z" fill="black"/>
<path d="M108.106 70.7871H115.094C115.217 71.8439 115.332 72.9007 115.483 74.2239H108.106V70.7871Z" fill="black"/>
<path d="M18.2573 45.0597H22.1138L22.0076 44.9442C22.0076 47.5019 22.0076 50.0595 22.0076 52.6083L22.1138 52.5017C21.0258 52.5017 19.9379 52.5017 18.3546 52.5017V44.9442L18.2484 45.0508L18.2573 45.0597Z" fill="black"/>
<path d="M85.2236 41.2676H88.9916C88.9916 43.8341 88.9916 46.3296 88.9916 48.834L89.0978 48.7274C87.8064 48.7629 86.515 48.7985 85.2236 48.834C85.259 46.2763 85.2944 43.7276 85.3297 41.1699L85.2236 41.2765V41.2676Z" fill="black"/>
<path d="M29.5083 59.3931C29.7824 58.8781 30.0655 58.363 30.3397 57.8479C30.8439 57.8479 31.3392 57.8479 31.8434 57.8479C32.3564 58.3807 32.8694 58.9136 33.3824 59.4464C33.3559 60.6986 33.3293 61.9508 33.294 63.1941L33.4001 63.0875C32.2945 63.0875 31.18 63.0875 29.8267 63.0875C29.7117 61.7909 29.6055 60.592 29.4994 59.3931H29.5083Z" fill="black"/>
<path d="M18.3634 44.9531C17.0189 44.9087 15.6745 44.8643 14.33 44.8199C14.33 44.8199 14.445 44.9265 14.445 44.9176C14.5335 43.6122 14.6219 42.3156 14.7192 41.0012C14.7192 41.0012 14.6131 41.1167 14.6219 41.1167C15.7187 41.1877 16.8155 41.2588 18.2661 41.3565C18.2661 42.653 18.2661 43.8519 18.2661 45.0508L18.3723 44.9443L18.3634 44.9531Z" fill="black"/>
<path d="M115.262 41.3741V44.7755H111.812V41.3741H115.262Z" fill="black"/>
<path d="M111.564 85.8666H115.155C115.244 87.0122 115.324 88.0601 115.421 89.3833C114.156 89.4544 113.112 89.5076 111.671 89.5876C111.671 88.1489 111.671 86.95 111.671 85.7511L111.564 85.8577V85.8666Z" fill="black"/>
<path d="M111.671 97.225V93.6194C112.812 93.5306 113.855 93.4507 115.173 93.353C115.244 94.623 115.297 95.6709 115.377 97.1184C113.953 97.1184 112.758 97.1184 111.556 97.1184L111.662 97.225H111.671Z" fill="black"/>
<path d="M81.5883 10.9311H77.9972C77.9087 9.78549 77.8291 8.73757 77.7318 7.41434C78.9966 7.3433 80.0404 7.29001 81.4821 7.21008C81.4821 8.64876 81.4821 9.84765 81.4821 11.0466L81.5883 10.94V10.9311Z" fill="black"/>
<path d="M81.4644 26.0372C81.4644 27.3338 81.4644 28.6304 81.4644 29.927L81.5706 29.8204H77.7053L77.8114 29.927C77.776 28.6304 77.7406 27.3338 77.7053 26.0372C78.9966 26.0728 80.2792 26.1083 81.5706 26.1438L81.4644 26.0372Z" fill="black"/>
<path d="M40.9361 33.6036H37.3362C37.2654 32.4402 37.1946 31.3923 37.0973 29.927C38.5303 29.927 39.7332 29.927 40.9273 29.927L40.8212 29.8204V33.7102L40.9273 33.6036H40.9361Z" fill="black"/>
<path d="M37.062 41.2676C38.3534 41.2676 39.6448 41.2676 40.9362 41.2676L40.83 41.161C40.8654 42.4576 40.9008 43.7542 40.9362 45.0419C39.6448 45.0419 38.3534 45.0419 37.062 45.0419C37.0974 43.7453 37.1327 42.4487 37.1681 41.161L37.062 41.2676Z" fill="black"/>
<path d="M22.1138 45.0508V41.2676C23.5555 41.2676 24.723 41.2676 25.8818 41.2676L25.7756 41.161V44.9442H22.0164L22.1226 45.0596L22.1138 45.0508Z" fill="black"/>
<path d="M29.5525 56.2493V52.6083C31.0031 52.6083 32.206 52.6083 33.4001 52.6083L33.294 52.4928C33.3205 53.745 33.347 54.9883 33.3824 56.2405C32.8694 56.7733 32.3564 57.3061 31.8434 57.839C31.3392 57.839 30.8439 57.839 30.3397 57.839C30.0743 57.3061 29.8178 56.7733 29.5525 56.2405V56.2493Z" fill="black"/>
<path d="M31.8434 57.8479C32.3564 57.3151 32.8694 56.7822 33.3824 56.2494H40.9273V52.5017L40.8212 52.6083C41.9887 52.5461 43.1474 52.484 44.5007 52.4218C44.5715 51.063 44.6334 49.8997 44.6865 48.7274L44.5803 48.834C45.7479 48.7807 46.9066 48.7185 48.3395 48.6564V44.9531H55.6809C55.7605 46.2408 55.8313 47.2799 55.9109 48.5498C54.6461 48.7008 53.5846 48.8251 52.3021 48.985C52.2048 50.1217 52.1164 51.1874 52.0191 52.4307C50.7719 52.5284 49.7016 52.6172 48.4368 52.7237V59.4553H33.3736C32.8605 58.9225 32.3475 58.3896 31.8345 57.8568L31.8434 57.8479Z" fill="black"/>
<path d="M66.4189 66.9773C66.4189 65.6807 66.4189 64.3841 66.4189 63.0876H69.957C70.125 61.9242 70.2842 60.8496 70.47 59.5708C71.5137 59.4465 72.584 59.3133 73.8842 59.1623V52.9458C75.1402 52.7327 76.1839 52.555 77.4753 52.333C77.6257 51.365 77.7937 50.2993 78.0414 48.7363H85.3386V52.262C84.0737 52.4573 83.0035 52.6172 81.6856 52.8126V58.9225C80.3411 59.1978 79.1913 59.4287 77.9176 59.6951V62.8655C78.9524 63.0254 80.005 63.1941 81.3318 63.4073C81.4114 64.5706 81.491 65.7784 81.5794 66.9951H74.0522V70.7782H70.5407C70.355 69.5172 70.1958 68.4515 69.9746 66.9951H66.4189V66.9773Z" fill="black"/>
<path d="M62.757 14.6965V18.4797C64.1988 18.4797 65.3575 18.4797 66.5162 18.4797C66.5162 21.0374 66.5162 23.595 66.5162 26.1438H62.8366V33.4348C61.3418 33.5503 60.1566 33.6391 58.9802 33.7279C57.9541 32.4136 56.9281 31.0992 55.9021 29.7849V26.3214C54.6903 26.1704 53.6289 26.0372 52.3375 25.8773C52.2667 24.6429 52.1871 23.4529 52.1164 22.254H58.8121V14.9452C60.3689 14.8475 61.5629 14.7765 62.757 14.6965Z" fill="black"/>
<path d="M55.8932 29.7937C56.9192 31.108 57.9453 32.4224 58.9713 33.7367C58.9359 34.9889 58.9006 36.2322 58.8652 37.4844L58.9713 37.3778C58.1133 37.4311 57.2465 37.4755 56.2116 37.5377C56.0524 38.6122 55.8932 39.6868 55.6898 41.01C54.6903 41.0811 53.6377 41.1521 52.364 41.2321V30.0424C53.5227 29.9624 54.708 29.8825 55.8844 29.7937H55.8932Z" fill="black"/>
<path d="M58.874 37.4756H66.1889C66.2951 38.6034 66.4012 39.6336 66.5251 40.8858C65.2779 41.0812 64.2342 41.241 62.9428 41.4453C62.8012 42.4399 62.6597 43.4967 62.4828 44.7667H58.989C58.989 42.2801 58.989 39.8201 58.989 37.369L58.8829 37.4756H58.874Z" fill="black"/>
<path d="M74.0434 26.0372C74.0434 27.3338 74.0434 28.6304 74.0434 29.927H70.5319C70.355 31.0726 70.1958 32.1294 69.9923 33.4526C68.984 33.5059 67.9403 33.5681 66.4189 33.6569V26.0461C68.9663 26.0461 71.5048 26.0461 74.0522 26.0461L74.0434 26.0372Z" fill="black"/>
<path d="M52.2225 78.2114C52.2225 80.7691 52.2225 83.3267 52.2225 85.8755H48.3572V78.2114H52.2225Z" fill="black"/>
<path d="M70.2754 48.8428V45.2372C71.4164 45.1484 72.4601 45.0685 73.778 44.9708C73.8488 46.2408 73.9019 47.2887 73.9815 48.7363C72.5574 48.7363 71.3633 48.7363 70.1604 48.7363L70.2665 48.8428H70.2754Z" fill="black"/>
<path d="M88.4079 89.7563H92.5916C92.6624 90.8132 92.7243 91.87 92.8127 93.1843C91.7513 93.2376 90.5749 93.655 90.1592 93.2554C89.425 92.5538 89.1597 91.3549 88.4167 89.7563H88.4079Z" fill="black"/>
<path d="M81.5706 108.557H77.7053C77.7672 107.385 77.8291 106.212 77.891 104.862C79.2443 104.791 80.403 104.729 81.5706 104.676C81.5706 105.972 81.5706 107.269 81.5706 108.566V108.557Z" fill="black"/>
<path d="M25.5014 25.8419H14.7811V14.9186H25.5014V25.8419Z" fill="black"/>
<path d="M96.8549 14.9186H107.593V25.833H96.8549V14.9186Z" fill="black"/>
<path d="M25.4837 108.379H14.7988V97.4026H25.4837V108.379Z" fill="black"/>
<path d="M77.8114 26.1437C76.52 26.1437 75.2286 26.1437 73.9461 26.1437V22.5382C75.2021 22.4582 76.2547 22.3872 77.5549 22.3073C77.6522 23.7282 77.7318 24.9359 77.8114 26.1437Z" fill="black"/>
<path d="M40.9362 48.8251C40.9008 47.5285 40.8654 46.2319 40.83 44.9442C42.1214 44.9442 43.4128 44.9442 44.6953 44.9442C44.6599 46.2408 44.6245 47.5374 44.5892 48.834L44.6953 48.7274H40.83L40.9362 48.834V48.8251Z" fill="black"/>
<path d="M37.1681 44.9442V48.6386C38.601 48.7096 39.7686 48.7718 40.9361 48.834L40.83 48.7274C40.83 50.024 40.83 51.3206 40.83 52.6171L40.9361 52.5106H33.3028L33.4089 52.626C33.4089 51.5159 33.4089 50.397 33.4089 49.1093C32.1706 48.9139 31.1092 48.754 29.7913 48.5498C29.7382 47.5463 29.6763 46.4895 29.5879 44.962H37.1681V44.9442Z" fill="black"/>
</svg>
