<svg width="1421" height="950" viewBox="0 0 1421 950" fill="none" xmlns="http://www.w3.org/2000/svg">
<path d="M1159.37 -358.621L1159.35 -358.656L1159.34 -358.691L1152.23 -373.466C1080.61 -523.124 983.235 -619.963 860.343 -664.02L860.342 -664.02C737.592 -707.877 608.62 -709.94 473.921 -669.957C339.123 -629.988 217.532 -559.822 109.009 -459.334L109.008 -459.333C-9.02184 -349.949 -95.9022 -214.519 -151.788 -53.078L-150.37 -52.5873L-151.788 -53.0776C-207.712 108.625 -208.731 283.026 -154.772 470.217L-154.763 470.247L-154.754 470.277C-142.152 508.016 -127.621 544.13 -111.162 578.62L-111.161 578.621C-43.0838 720.901 50.4538 811.546 169.667 850.274C288.589 888.955 414.309 885.825 546.774 841.107L546.776 841.106C560.53 836.432 573.989 831.328 587.427 826.083C648.336 851.679 727.275 878.449 792.631 896.731C825.406 905.899 854.804 912.944 876.817 916.632C887.815 918.475 897.028 919.49 903.919 919.5C907.36 919.505 910.288 919.259 912.597 918.711C914.858 918.175 916.784 917.288 917.889 915.796L917.892 915.792C918.736 914.645 919.26 913.006 919.595 911.109C919.936 909.176 920.108 906.807 920.138 904.066C920.196 898.581 919.683 891.448 918.708 883.012C916.756 866.132 912.93 843.869 907.996 818.8C898.182 768.937 883.96 707.849 871.282 655.653C883.637 645.056 895.999 634.3 908.08 623.112C1037.51 503.234 1131.2 356.126 1189.31 181.965C1247.47 7.65186 1237.36 -172.567 1159.37 -358.621Z" stroke="#F1F1F1" stroke-opacity="0.5" stroke-width="3"/>
<path d="M1352.37 396.379L1352.35 396.344L1352.34 396.309L1345.23 381.534C1273.61 231.876 1176.24 135.037 1053.34 90.9804L1053.34 90.9799C930.592 47.1227 801.62 45.0603 666.921 85.0434C532.123 125.012 410.532 195.178 302.009 295.666L302.008 295.667C183.978 405.051 97.0978 540.481 41.2124 701.922L42.6299 702.413L41.2123 701.922C-14.7124 863.625 -15.7312 1038.03 38.2279 1225.22L38.2365 1225.25L38.2464 1225.28C50.8483 1263.02 65.3787 1299.13 81.8384 1333.62L81.8391 1333.62C149.916 1475.9 243.454 1566.55 362.667 1605.27C481.589 1643.96 607.309 1640.83 739.774 1596.11L739.776 1596.11C753.53 1591.43 766.989 1586.33 780.427 1581.08C841.336 1606.68 920.275 1633.45 985.631 1651.73C1018.41 1660.9 1047.8 1667.94 1069.82 1671.63C1080.82 1673.48 1090.03 1674.49 1096.92 1674.5C1100.36 1674.5 1103.29 1674.26 1105.6 1673.71C1107.86 1673.17 1109.78 1672.29 1110.89 1670.8L1110.89 1670.79C1111.74 1669.64 1112.26 1668.01 1112.59 1666.11C1112.94 1664.18 1113.11 1661.81 1113.14 1659.07C1113.2 1653.58 1112.68 1646.45 1111.71 1638.01C1109.76 1621.13 1105.93 1598.87 1101 1573.8C1091.18 1523.94 1076.96 1462.85 1064.28 1410.65C1076.64 1400.06 1089 1389.3 1101.08 1378.11C1230.51 1258.23 1324.2 1111.13 1382.31 936.965C1440.47 762.652 1430.36 582.433 1352.37 396.379Z" stroke="#F1F1F1" stroke-opacity="0.5" stroke-width="3"/>
</svg>
